<svg xmlns="http://www.w3.org/2000/svg" viewBox="0 0 60 40">
  <rect width="60" height="40" fill="#fff"/>
  <g fill="#B22234">
    <rect y="0" width="60" height="3.1"/>
    <rect y="6.2" width="60" height="3.1"/>
    <rect y="12.4" width="60" height="3.1"/>
    <rect y="18.6" width="60" height="3.1"/>
    <rect y="24.8" width="60" height="3.1"/>
    <rect y="31" width="60" height="3.1"/>
    <rect y="37.2" width="60" height="2.8"/>
  </g>
  <rect width="25.5" height="17.3" fill="#3C3B6B"/>
  <g fill="#fff" transform="translate(2,2)">
    <circle cx="1.7" cy="1.4" r="0.8"/>
    <circle cx="5.1" cy="1.4" r="0.8"/>
    <circle cx="8.5" cy="1.4" r="0.8"/>
    <circle cx="11.9" cy="1.4" r="0.8"/>
    <circle cx="15.3" cy="1.4" r="0.8"/>
    <circle cx="18.7" cy="1.4" r="0.8"/>
    <circle cx="22.1" cy="1.4" r="0.8"/>
    <circle cx="3.4" cy="3.1" r="0.8"/>
    <circle cx="6.8" cy="3.1" r="0.8"/>
    <circle cx="10.2" cy="3.1" r="0.8"/>
    <circle cx="13.6" cy="3.1" r="0.8"/>
    <circle cx="17" cy="3.1" r="0.8"/>
    <circle cx="20.4" cy="3.1" r="0.8"/>
    <circle cx="1.7" cy="4.8" r="0.8"/>
    <circle cx="5.1" cy="4.8" r="0.8"/>
    <circle cx="8.5" cy="4.8" r="0.8"/>
    <circle cx="11.9" cy="4.8" r="0.8"/>
    <circle cx="15.3" cy="4.8" r="0.8"/>
    <circle cx="18.7" cy="4.8" r="0.8"/>
    <circle cx="22.1" cy="4.8" r="0.8"/>
    <circle cx="3.4" cy="6.5" r="0.8"/>
    <circle cx="6.8" cy="6.5" r="0.8"/>
    <circle cx="10.2" cy="6.5" r="0.8"/>
    <circle cx="13.6" cy="6.5" r="0.8"/>
    <circle cx="17" cy="6.5" r="0.8"/>
    <circle cx="20.4" cy="6.5" r="0.8"/>
  </g>
</svg>